<?xml version="1.0" encoding="UTF-8" standalone="no"?>
<!-- Created with Inkscape (http://www.inkscape.org/) -->

<svg
   xmlns:dc="http://purl.org/dc/elements/1.1/"
   xmlns:cc="http://creativecommons.org/ns#"
   xmlns:rdf="http://www.w3.org/1999/02/22-rdf-syntax-ns#"
   xmlns:svg="http://www.w3.org/2000/svg"
   xmlns="http://www.w3.org/2000/svg"
   xmlns:sodipodi="http://sodipodi.sourceforge.net/DTD/sodipodi-0.dtd"
   xmlns:inkscape="http://www.inkscape.org/namespaces/inkscape"
   width="32.473465mm"
   height="35.617874mm"
   viewBox="0 0 115.06346 126.20507"
   id="svg2"
   version="1.1"
   inkscape:version="0.91 r13725"
   sodipodi:docname="ajr logo.svg">
  <defs
     id="defs4" />
  <sodipodi:namedview
     id="base"
     pagecolor="#ffffff"
     bordercolor="#666666"
     borderopacity="1.0"
     inkscape:pageopacity="0.0"
     inkscape:pageshadow="2"
     inkscape:zoom="1"
     inkscape:cx="169.93683"
     inkscape:cy="101.30531"
     inkscape:document-units="px"
     inkscape:current-layer="layer1"
     showgrid="false"
     showborder="false"
     inkscape:window-width="1366"
     inkscape:window-height="706"
     inkscape:window-x="-8"
     inkscape:window-y="-8"
     inkscape:window-maximized="1"
     fit-margin-top="0"
     fit-margin-left="0"
     fit-margin-right="0"
     fit-margin-bottom="0" />
  <metadata
     id="metadata7">
    <rdf:RDF>
      <cc:Work
         rdf:about="">
        <dc:format>image/svg+xml</dc:format>
        <dc:type
           rdf:resource="http://purl.org/dc/dcmitype/StillImage" />
        <dc:title></dc:title>
      </cc:Work>
    </rdf:RDF>
  </metadata>
  <g
     inkscape:label="Layer 1"
     inkscape:groupmode="layer"
     id="layer1"
     transform="translate(24.40246,-1004.0631)">
    <rect
       style="opacity:1;fill:#000000;fill-opacity:1;fill-rule:nonzero;stroke:none;stroke-width:3;stroke-linecap:round;stroke-linejoin:round;stroke-miterlimit:4;stroke-dasharray:none;stroke-dashoffset:0;stroke-opacity:1"
       id="rect4154"
       width="265.94113"
       height="282.91168"
       x="-292.05026"
       y="313.37082" />
    <path
       style="opacity:1;fill:#ff0000;fill-opacity:1;fill-rule:nonzero;stroke:none;stroke-width:3;stroke-linecap:round;stroke-linejoin:round;stroke-miterlimit:4;stroke-dasharray:none;stroke-dashoffset:0;stroke-opacity:1"
       d="m -154.76243,342.73812 a 75,75 0 0 0 -66.63848,-6.38886 75,75 0 0 0 -42.94163,96.98462 75,75 0 0 0 12.90167,21.52167 56,56 0 0 0 2.03761,33.81202 56,56 0 0 0 8.30049,14.45482 51,51 0 0 0 -1.90479,40.96265 51,51 0 0 0 55.971,31.8734 c -0.37417,-2.21325 -0.9107,-4.49212 -1.58922,-6.82526 -2.53066,-8.70173 -6.95506,-18.10439 -11.58011,-27.3753 -4.62506,-9.27091 -9.4489,-18.40956 -12.77477,-26.62496 -3.32587,-8.21541 -5.18776,-15.51404 -3.73095,-21.17975 1.8434,-7.16924 8.7557,-11.877 16.05036,-16.17152 7.23704,-4.26059 14.88286,-8.16291 18.62508,-13.35952 -0.0303,-0.11592 -0.0824,-0.28352 -0.15527,-0.48859 -0.15229,-0.42902 -0.37687,-0.99523 -0.6091,-1.55489 -0.23206,-0.55975 -0.47165,-1.11541 -0.65491,-1.53302 -0.0916,-0.20882 -0.16967,-0.38294 -0.22461,-0.50577 -0.0279,-0.0612 -0.0511,-0.11004 -0.0656,-0.14216 -0.005,-0.0109 -0.008,-0.0168 -0.011,-0.023 -11.57275,-16.4464 -26.53395,-46.68666 -26.93705,-67.03936 -0.15154,-7.65058 4.6939,-13.57411 11.5574,-18.75142 6.86349,-5.1773 15.79287,-9.67914 24.06263,-14.55723 8.26977,-4.8781 15.86428,-10.13534 20.07958,-16.70596 0.0809,-0.126 0.15283,-0.25544 0.23126,-0.38244 z"
       id="path4136"
       inkscape:connector-curvature="0" />
    <path
       style="opacity:1;fill:#ff0000;fill-opacity:1;fill-rule:nonzero;stroke:none;stroke-width:3;stroke-linecap:round;stroke-linejoin:round;stroke-miterlimit:4;stroke-dasharray:none;stroke-dashoffset:0;stroke-opacity:1"
       d="m 48.817902,388.51448 a 75,75 0 0 0 -45.52138,9.79424 c 0.0801,0.13236 0.16721,0.25916 0.24509,0.39324 4.07275,7.01078 5.2622,16.3081 5.8293,25.9381 0.56715,9.63001 0.50352,19.60608 1.9524,27.93926 1.44889,8.33317 4.37063,14.94904 10.85886,18.11777 17.87826,8.73145 51.67915,9.31434 71.41697,6.54414 0.001,-1.9e-4 0.0649,-0.006 0.0752,-0.006 0.0103,-3.4e-4 0.0173,10e-4 0.0255,7.2e-4 0.016,3.4e-4 0.0321,3.8e-4 0.0528,0.002 0.0418,10e-4 0.0986,0.004 0.16806,0.008 0.13919,0.007 0.33179,0.0181 0.56226,0.032 0.46094,0.0279 1.06911,0.0694 1.68234,0.11928 0.61323,0.0499 1.229837,0.10676 1.714122,0.17153 0.242133,0.0326 0.449073,0.0674 0.621095,0.10703 0.08598,0.0197 0.16349,0.0387 0.245817,0.0712 0.08249,0.0322 0.199045,0.0191 0.337276,0.28322 3.177138,6.06621 3.061628,14.82296 3.549398,23.22775 0.48777,8.40482 1.56562,16.39213 6.72662,20.9718 4.06222,3.60466 11.22276,5.31803 19.97214,6.10274 8.74939,0.78471 19.06737,0.66772 29.4424,0.78564 10.37502,0.11796 20.8071,0.47049 29.82132,2.21438 2.42113,0.46838 4.73791,1.04027 6.92819,1.73362 a 51,51 0 0 0 1.85682,-9.14752 51,51 0 0 0 -45.34367,-56.08878 51,51 0 0 0 -7.7026,-0.18942 56,56 0 0 0 -31.90544,-26.85226 75,75 0 0 0 -63.610958,-52.27315 z"
       id="path4152"
       inkscape:connector-curvature="0" />
    <path
       style="opacity:1;fill:#ff0000;fill-opacity:1;fill-rule:nonzero;stroke:none;stroke-width:3;stroke-linecap:round;stroke-linejoin:round;stroke-miterlimit:4;stroke-dasharray:none;stroke-dashoffset:0;stroke-opacity:1"
       d="m -298,651.25977 a 39,63.103325 0 0 0 -39,63.10156 39,63.103325 0 0 0 39,63.10351 39,63.103325 0 0 0 27.28906,-18.03906 c -3.09723,0.72941 -6.24916,0.85372 -9.38672,0.24805 -9.32033,-1.79917 -16.42985,-9.50454 -20.46093,-20.1211 -4.03107,-10.61655 -5.09146,-24.25636 -2.33399,-38.54101 2.75747,-14.28464 8.81874,-26.54897 16.51172,-34.90234 2.38752,-2.59248 4.94534,-4.81222 7.61719,-6.58985 A 39,63.103325 0 0 0 -298,651.25977 Z m 21.41602,10.41992 c -2.62443,1.67668 -5.17512,3.84088 -7.58985,6.46289 -7.23067,7.85139 -13.11093,19.64479 -15.77344,33.4375 -2.66251,13.7927 -1.59547,26.93159 2.19336,36.91015 3.78883,9.97857 10.19218,16.68773 18.22461,18.23829 3.63177,0.70107 7.34696,0.28829 10.9961,-1.0879 A 39,63.103325 0 0 0 -259,714.36133 39,63.103325 0 0 0 -276.58398,661.67969 Z"
       id="path4156"
       inkscape:connector-curvature="0" />
    <ellipse
       ry="51.777088"
       rx="32"
       cy="745.71545"
       cx="-131.03351"
       id="ellipse4158"
       style="opacity:1;fill:#ff0000;fill-opacity:1;fill-rule:nonzero;stroke:none;stroke-width:3;stroke-linecap:round;stroke-linejoin:round;stroke-miterlimit:4;stroke-dasharray:none;stroke-dashoffset:0;stroke-opacity:1"
       transform="matrix(0.98187331,0.18953839,-0.18953839,0.98187331,0,0)" />
    <path
       style="fill:#ff0000;fill-rule:evenodd;stroke:none;stroke-width:1px;stroke-linecap:butt;stroke-linejoin:miter;stroke-opacity:1"
       d="m -337.64645,654.30154 c -10.57154,-2.51145 -13.76976,2.70152 -14.5,10.5 15.70587,14.25098 22.52953,32.05485 29,50 l 15,-12.5 c -5.34388,-18.12658 -15.19944,-34.11605 -29.5,-48 z"
       id="path4167"
       inkscape:connector-curvature="0"
       sodipodi:nodetypes="ccccc" />
    <g
       id="g4175"
       style="fill:#e6e6e6"
       inkscape:export-xdpi="90"
       inkscape:export-ydpi="90">
      <path
         inkscape:connector-curvature="0"
         style="opacity:1;fill:#e6e6e6;fill-opacity:1;fill-rule:nonzero;stroke:none;stroke-width:3;stroke-linecap:round;stroke-linejoin:round;stroke-miterlimit:4;stroke-dasharray:none;stroke-dashoffset:0;stroke-opacity:1"
         d="m -100.5,651.25977 a 39,63.103325 0 0 0 -39,63.10156 39,63.103325 0 0 0 39,63.10351 39,63.103325 0 0 0 27.28906,-18.03906 c -3.09723,0.72941 -6.24916,0.85372 -9.38672,0.24805 -9.32033,-1.79917 -16.42985,-9.50454 -20.46093,-20.1211 -4.03107,-10.61655 -5.09146,-24.25636 -2.33399,-38.54101 2.75747,-14.28464 8.81874,-26.54897 16.51172,-34.90234 2.38752,-2.59248 4.94534,-4.81222 7.61719,-6.58985 A 39,63.103325 0 0 0 -100.5,651.25977 Z m 21.41602,10.41992 c -2.62443,1.67668 -5.17512,3.84088 -7.58985,6.46289 -7.23067,7.85139 -13.11093,19.64479 -15.77344,33.4375 -2.66251,13.7927 -1.59547,26.93159 2.19336,36.91015 3.78883,9.97857 10.19218,16.68773 18.22461,18.23829 3.63177,0.70107 7.34696,0.28829 10.9961,-1.0879 A 39,63.103325 0 0 0 -61.5,714.36133 39,63.103325 0 0 0 -79.08398,661.67969 Z"
         id="path4169" />
      <ellipse
         ry="51.777088"
         rx="32"
         cy="708.28162"
         cx="62.886471"
         id="ellipse4171"
         style="opacity:1;fill:#e6e6e6;fill-opacity:1;fill-rule:nonzero;stroke:none;stroke-width:3;stroke-linecap:round;stroke-linejoin:round;stroke-miterlimit:4;stroke-dasharray:none;stroke-dashoffset:0;stroke-opacity:1"
         transform="matrix(0.98187331,0.18953839,-0.18953839,0.98187331,0,0)" />
      <path
         style="fill:#e6e6e6;fill-rule:evenodd;stroke:none;stroke-width:1px;stroke-linecap:butt;stroke-linejoin:miter;stroke-opacity:1"
         d="m -140.14645,654.30154 c -10.57154,-2.51145 -13.76976,2.70152 -14.5,10.5 15.70587,14.25098 22.52953,32.05485 29,50 l 15,-12.5 c -5.34388,-18.12658 -15.19944,-34.11605 -29.5,-48 z"
         id="path4173"
         inkscape:connector-curvature="0"
         sodipodi:nodetypes="ccccc" />
    </g>
    <path
       style="opacity:1;fill:#ff0000;fill-opacity:1;fill-rule:nonzero;stroke:none;stroke-width:3;stroke-linecap:round;stroke-linejoin:round;stroke-miterlimit:4;stroke-dasharray:none;stroke-dashoffset:0;stroke-opacity:1"
       d="m -298,794.75977 a 39,63.103325 0 0 0 -39,63.10156 39,63.103325 0 0 0 39,63.10351 39,63.103325 0 0 0 27.28906,-18.03906 c -3.09723,0.72941 -6.24916,0.85372 -9.38672,0.24805 -9.32033,-1.79917 -16.42985,-9.50454 -20.46093,-20.1211 -4.03107,-10.61655 -5.09146,-24.25636 -2.33399,-38.54101 2.75747,-14.28464 8.81874,-26.54898 16.51172,-34.90234 2.38752,-2.59249 4.94534,-4.81222 7.61719,-6.58985 A 39,63.103325 0 0 0 -298,794.75977 Z m 21.41602,10.41992 c -2.62443,1.67668 -5.17512,3.84088 -7.58985,6.46289 -7.23067,7.85139 -13.11093,19.64479 -15.77344,33.4375 -2.66251,13.7927 -1.59547,26.93159 2.19336,36.91015 3.78883,9.97857 10.19218,16.68773 18.22461,18.23829 3.63177,0.70107 7.34696,0.28831 10.9961,-1.0879 a 39,63.103325 0 0 0 9.5332,-41.27929 39,63.103325 0 0 0 -0.36328,-8.04492 l -1.08594,0 0,7.42187 -3.47656,0 0,-17.96875 c 0.70313,-0.0521 1.4974,-0.0976 2.38281,-0.13672 0.26767,-0.0118 0.50705,-0.009 0.76758,-0.0176 a 39,63.103325 0 0 0 -15.80859,-33.93554 z m -3.22071,33.60156 6.3086,18.45703 -3.73047,0 -2.01172,-6.07422 -6.44531,0.0977 -2.07032,5.97656 -2.20703,0 6.77735,-17.85156 3.3789,-0.60547 z m 8.37891,0.44922 3.47656,0 0,16.66015 c 0,1.86199 -0.4362,3.35287 -1.30859,4.47266 -0.85938,1.13281 -2.14844,1.99219 -3.86719,2.57813 l -0.58594,-1.11329 c 0.46876,-0.28645 0.85287,-0.60546 1.15235,-0.95703 0.29948,-0.35156 0.52734,-0.73567 0.68359,-1.15234 0.16927,-0.40365 0.28646,-0.83985 0.35156,-1.30859 0.0651,-0.45574 0.0977,-0.94401 0.0977,-1.46485 l 0,-17.71484 z m 10.97656,1.89844 0,6.91015 0.625,0 c 0.0998,0 0.19484,-0.0125 0.29297,-0.0176 a 39,63.103325 0 0 0 -0.91797,-6.89257 z m -21.93359,0.5625 -2.67578,7.77343 5.27343,0 -2.59765,-7.77343 z"
       id="path4180"
       inkscape:connector-curvature="0" />
    <path
       style="opacity:1;fill:#ff0000;fill-opacity:1;fill-rule:nonzero;stroke:none;stroke-width:3;stroke-linecap:round;stroke-linejoin:round;stroke-miterlimit:4;stroke-dasharray:none;stroke-dashoffset:0;stroke-opacity:1"
       d="m -262.43359,799.72266 a 32,51.777088 10.925846 0 0 -38.98633,45.07422 32,51.777088 10.925846 0 0 21.60547,56.90429 32,51.777088 10.925846 0 0 41.23437,-44.77344 32,51.777088 10.925846 0 0 -21.60547,-56.90429 32,51.777088 10.925846 0 0 -2.24804,-0.30078 z m -17.3711,39.05859 6.3086,18.45703 -3.73047,0 -2.01172,-6.07422 -6.44531,0.0977 -2.07032,5.97656 -2.20703,0 6.77735,-17.85156 3.3789,-0.60547 z m 20.80078,0.29297 c 2.07032,0 3.63932,0.39714 4.70703,1.1914 1.08073,0.79428 1.6211,2.03777 1.6211,3.73047 0,0.75522 -0.0911,1.41277 -0.27344,1.97266 -0.18229,0.55989 -0.42318,1.04818 -0.72266,1.46484 -0.29947,0.41667 -0.64452,0.76823 -1.03515,1.05469 -0.39063,0.28646 -0.80078,0.52734 -1.23047,0.72266 0.50781,0.92448 0.98959,1.79688 1.44531,2.61718 0.46876,0.82032 0.93099,1.53646 1.38672,2.14844 0.46875,0.61198 0.9375,1.10026 1.40625,1.46485 0.48177,0.35156 0.9961,0.52734 1.54297,0.52734 l 0.11719,0 0,1.15234 c -0.27344,0.0911 -0.59245,0.16276 -0.95703,0.21485 -0.35157,0.0651 -0.7487,0.0976 -1.19141,0.0976 -0.63802,0 -1.19791,-0.0586 -1.67969,-0.17578 -0.46874,-0.11718 -0.93098,-0.37109 -1.38672,-0.76172 -0.4427,-0.39062 -0.90495,-0.96353 -1.38671,-1.71875 -0.48178,-0.7552 -1.04167,-1.77734 -1.67969,-3.0664 l -0.95703,-1.89453 -1.17188,0 0,7.42187 -3.47656,0 0,-17.96875 c 0.70313,-0.0521 1.4974,-0.0976 2.38281,-0.13672 0.88542,-0.0391 1.73178,-0.0586 2.53906,-0.0586 z m -12.42187,0.15625 3.47656,0 0,16.66015 c 0,1.86199 -0.4362,3.35287 -1.30859,4.47266 -0.85938,1.13281 -2.14844,1.99219 -3.86719,2.57813 l -0.58594,-1.11329 c 0.46876,-0.28645 0.85287,-0.60546 1.15235,-0.95703 0.29948,-0.35156 0.52734,-0.73567 0.68359,-1.15234 0.16927,-0.40365 0.28646,-0.83985 0.35156,-1.30859 0.0651,-0.45574 0.0977,-0.94401 0.0977,-1.46485 l 0,-17.71484 z m 11.93359,1.71875 c -0.14322,0 -0.30599,0.007 -0.48828,0.0195 -0.16927,0 -0.32552,0.013 -0.46875,0.0391 l 0,7.03125 0.625,0 c 0.48177,0 0.94401,-0.0586 1.38672,-0.17578 0.45573,-0.13021 0.8138,-0.28646 1.07422,-0.46875 0.13021,-0.0912 0.26042,-0.20833 0.39062,-0.35156 0.13022,-0.14323 0.2474,-0.33203 0.35157,-0.56641 0.10416,-0.23437 0.1888,-0.53385 0.2539,-0.89844 0.0651,-0.36458 0.0977,-0.82031 0.0977,-1.36718 0,-0.61198 -0.0716,-1.1263 -0.21485,-1.54297 -0.13021,-0.41667 -0.33203,-0.7487 -0.60546,-0.99609 -0.27344,-0.26042 -0.61198,-0.44271 -1.01563,-0.54688 -0.40365,-0.11719 -0.86588,-0.17578 -1.38672,-0.17578 z m -22.89062,0.74219 -2.67578,7.77343 5.27343,0 -2.59765,-7.77343 z"
       id="ellipse4182"
       inkscape:connector-curvature="0" />
    <path
       sodipodi:nodetypes="ccccc"
       inkscape:connector-curvature="0"
       id="path4184"
       d="m -337.64645,797.80154 c -10.57154,-2.51145 -13.76976,2.70152 -14.5,10.5 15.70587,14.25098 22.52953,32.05485 29,50 l 15,-12.5 c -5.34388,-18.12658 -15.19944,-34.11605 -29.5,-48 z"
       style="fill:#ff0000;fill-rule:evenodd;stroke:none;stroke-width:1px;stroke-linecap:butt;stroke-linejoin:miter;stroke-opacity:1" />
    <g
       transform="translate(54.499994,-2.7301215)"
       style="font-style:normal;font-weight:normal;font-size:40px;line-height:100%;font-family:sans-serif;letter-spacing:0px;word-spacing:0px;fill:#00ff00;fill-opacity:1;stroke:none;stroke-width:1px;stroke-linecap:butt;stroke-linejoin:miter;stroke-opacity:1"
       id="flowRoot4186" />
    <g
       id="g4208"
       style="font-style:normal;font-weight:normal;font-size:40px;line-height:100%;font-family:sans-serif;letter-spacing:0px;word-spacing:0px;fill:#ff00ff;fill-opacity:1;stroke:none;stroke-width:1px;stroke-linecap:butt;stroke-linejoin:miter;stroke-opacity:1"
       transform="translate(54.499994,-2.7301215)" />
    <path
       inkscape:connector-curvature="0"
       style="opacity:1;fill:#ff0000;fill-opacity:1;fill-rule:nonzero;stroke:none;stroke-width:3;stroke-linecap:round;stroke-linejoin:round;stroke-miterlimit:4;stroke-dasharray:none;stroke-dashoffset:0;stroke-opacity:1"
       d="m -444.3711,794.75977 a 39,63.103325 0 0 0 -39,63.10156 39,63.103325 0 0 0 39,63.10351 39,63.103325 0 0 0 27.28906,-18.03906 c -3.09723,0.72941 -6.24916,0.85372 -9.38672,0.24805 -9.32033,-1.79917 -16.42985,-9.50454 -20.46093,-20.1211 -4.03107,-10.61655 -5.09146,-24.25636 -2.33399,-38.54101 2.75747,-14.28464 8.81874,-26.54897 16.51172,-34.90234 2.38752,-2.59248 4.94534,-4.81222 7.61719,-6.58985 a 39,63.103325 0 0 0 -19.23633,-8.25976 z m 21.41602,10.41992 c -2.62443,1.67668 -5.17512,3.84088 -7.58985,6.46289 -7.23067,7.85139 -13.11093,19.64479 -15.77344,33.4375 -2.66251,13.7927 -1.59547,26.93159 2.19336,36.91015 3.78883,9.97857 10.19218,16.68773 18.22461,18.23829 3.63177,0.70107 7.34696,0.28829 10.9961,-1.0879 a 39,63.103325 0 0 0 9.5332,-41.27929 39,63.103325 0 0 0 -17.58398,-52.68164 z"
       id="path4220" />
    <path
       id="path4222"
       d="m -408.80469,799.72266 a 32,51.777088 10.925846 0 0 -38.98633,45.07422 32,51.777088 10.925846 0 0 21.60547,56.90429 32,51.777088 10.925846 0 0 41.23437,-44.77344 32,51.777088 10.925846 0 0 -21.60547,-56.90429 32,51.777088 10.925846 0 0 -2.24804,-0.30078 z m -17.3711,39.05859 6.3086,18.45703 -3.73047,0 -2.01172,-6.07422 -6.44531,0.0977 -2.07032,5.97656 -2.20703,0 6.77735,-17.85156 3.3789,-0.60547 z m 20.80078,0.29297 c 2.07032,0 3.63932,0.39714 4.70703,1.1914 1.08073,0.79428 1.6211,2.03777 1.6211,3.73047 0,0.75522 -0.0912,1.41277 -0.27344,1.97266 -0.18229,0.55989 -0.42318,1.04818 -0.72266,1.46484 -0.29947,0.41667 -0.64452,0.76823 -1.03515,1.05469 -0.39063,0.28646 -0.80078,0.52734 -1.23047,0.72266 0.50781,0.92448 0.98959,1.79688 1.44531,2.61718 0.46876,0.82032 0.93099,1.53646 1.38672,2.14844 0.46875,0.61198 0.9375,1.10026 1.40625,1.46485 0.48177,0.35156 0.9961,0.52734 1.54297,0.52734 l 0.11719,0 0,1.15234 c -0.27344,0.0911 -0.59245,0.16276 -0.95703,0.21485 -0.35157,0.0651 -0.7487,0.0976 -1.19141,0.0976 -0.63802,0 -1.19791,-0.0586 -1.67969,-0.17578 -0.46874,-0.11718 -0.93098,-0.37109 -1.38672,-0.76172 -0.4427,-0.39062 -0.90495,-0.96353 -1.38671,-1.71875 -0.48178,-0.7552 -1.04167,-1.77734 -1.67969,-3.0664 l -0.95703,-1.89453 -1.17188,0 0,7.42187 -3.47656,0 0,-17.96875 c 0.70313,-0.0521 1.4974,-0.0976 2.38281,-0.13672 0.88542,-0.0391 1.73178,-0.0586 2.53906,-0.0586 z m -12.42187,0.15625 3.47656,0 0,16.66015 c 0,1.86199 -0.4362,3.35287 -1.30859,4.47266 -0.85938,1.13281 -2.14844,1.99219 -3.86719,2.57813 l -0.58594,-1.11329 c 0.46876,-0.28645 0.85287,-0.60546 1.15235,-0.95703 0.29948,-0.35156 0.52734,-0.73567 0.68359,-1.15234 0.16927,-0.40365 0.28646,-0.83985 0.35156,-1.30859 0.0651,-0.45574 0.0977,-0.94401 0.0977,-1.46485 l 0,-17.71484 z m 11.93359,1.71875 c -0.14322,0 -0.30599,0.007 -0.48828,0.0195 -0.16927,0 -0.32552,0.013 -0.46875,0.0391 l 0,7.03125 0.625,0 c 0.48177,0 0.94401,-0.0586 1.38672,-0.17578 0.45573,-0.13021 0.8138,-0.28646 1.07422,-0.46875 0.13021,-0.0912 0.26042,-0.20833 0.39062,-0.35156 0.13022,-0.14323 0.2474,-0.33203 0.35157,-0.56641 0.10416,-0.23437 0.1888,-0.53385 0.2539,-0.89844 0.0651,-0.36458 0.0977,-0.82031 0.0977,-1.36718 0,-0.61198 -0.0716,-1.1263 -0.21485,-1.54297 -0.13021,-0.41667 -0.33203,-0.7487 -0.60546,-0.99609 -0.27344,-0.26042 -0.61198,-0.44271 -1.01563,-0.54688 -0.40365,-0.11719 -0.86588,-0.17578 -1.38672,-0.17578 z m -22.89062,0.74219 -2.67578,7.77343 5.27343,0 -2.59765,-7.77343 z"
       style="opacity:1;fill:#ff0000;fill-opacity:1;fill-rule:nonzero;stroke:none;stroke-width:3;stroke-linecap:round;stroke-linejoin:round;stroke-miterlimit:4;stroke-dasharray:none;stroke-dashoffset:0;stroke-opacity:1"
       inkscape:connector-curvature="0" />
    <path
       style="fill:#ff0000;fill-rule:evenodd;stroke:none;stroke-width:1px;stroke-linecap:butt;stroke-linejoin:miter;stroke-opacity:1"
       d="m -484.01755,797.80154 c -10.57154,-2.51145 -13.76976,2.70152 -14.5,10.5 15.70587,14.25098 22.52953,32.05485 29,50 l 15,-12.5 c -5.34388,-18.12658 -15.19944,-34.11605 -29.5,-48 z"
       id="path4224"
       inkscape:connector-curvature="0"
       sodipodi:nodetypes="ccccc" />
    <g
       id="g4226"
       style="font-style:normal;font-weight:normal;font-size:40px;line-height:100%;font-family:sans-serif;letter-spacing:0px;word-spacing:0px;fill:#00ff00;fill-opacity:1;stroke:none;stroke-width:1px;stroke-linecap:butt;stroke-linejoin:miter;stroke-opacity:1"
       transform="translate(-91.87111,-2.7301215)">
      <path
         id="path4228"
         style="font-style:normal;font-variant:normal;font-weight:normal;font-stretch:normal;font-size:40px;line-height:100%;font-family:MoolBoran;-inkscape-font-specification:'MoolBoran, Normal';text-align:start;writing-mode:lr-tb;text-anchor:start;fill:#00ff00"
         d="m -331.72656,859.96928 -2.01172,-6.07422 -6.44531,0.0977 -2.07032,5.97656 -2.20703,0 6.77735,-17.85156 3.3789,-0.60547 6.3086,18.45703 -3.73047,0 z m -2.5586,-7.77344 -2.59765,-7.77343 -2.67578,7.77343 5.27343,0 z"
         inkscape:connector-curvature="0" />
      <path
         id="path4230"
         style="font-style:normal;font-variant:normal;font-weight:normal;font-stretch:normal;font-size:40px;line-height:100%;font-family:MoolBoran;-inkscape-font-specification:'MoolBoran, Normal';text-align:start;writing-mode:lr-tb;text-anchor:start;fill:#00ff00"
         d="m -322.44922,858.62162 q 0,2.79297 -1.30859,4.47266 -1.28906,1.69922 -3.86719,2.57813 l -0.58594,-1.11329 q 0.70313,-0.42968 1.15235,-0.95703 0.44922,-0.52734 0.68359,-1.15234 0.25391,-0.60547 0.35156,-1.30859 0.0977,-0.6836 0.0977,-1.46485 l 0,-17.71484 3.47656,0 0,16.66015 z"
         inkscape:connector-curvature="0" />
      <path
         id="path4232"
         style="font-style:normal;font-variant:normal;font-weight:normal;font-stretch:normal;font-size:40px;line-height:100%;font-family:MoolBoran;-inkscape-font-specification:'MoolBoran, Normal';text-align:start;writing-mode:lr-tb;text-anchor:start;fill:#00ff00"
         d="m -313.77734,852.54741 -1.17188,0 0,7.42187 -3.47656,0 0,-17.96875 q 1.05469,-0.0781 2.38281,-0.13672 1.32813,-0.0586 2.53906,-0.0586 3.10547,0 4.70704,1.1914 1.62109,1.19141 1.62109,3.73047 0,1.13282 -0.27344,1.97266 -0.27344,0.83984 -0.72265,1.46484 -0.44922,0.625 -1.03516,1.05469 -0.58594,0.42969 -1.23047,0.72266 0.76172,1.38672 1.44531,2.61718 0.70313,1.23047 1.38672,2.14844 0.70313,0.91797 1.40625,1.46485 0.72266,0.52734 1.54297,0.52734 l 0.11719,0 0,1.15234 q -0.41016,0.13672 -0.95703,0.21485 -0.52735,0.0976 -1.19141,0.0976 -0.95703,0 -1.67969,-0.17578 -0.70312,-0.17578 -1.38672,-0.76172 -0.66406,-0.58593 -1.38671,-1.71875 -0.72266,-1.13281 -1.67969,-3.0664 l -0.95703,-1.89453 z m -0.54688,-1.77735 q 0.72266,0 1.38672,-0.17578 0.68359,-0.19531 1.07422,-0.46875 0.19531,-0.13672 0.39062,-0.35156 0.19532,-0.21485 0.35157,-0.56641 0.15625,-0.35156 0.2539,-0.89844 0.0977,-0.54687 0.0977,-1.36718 0,-0.91797 -0.21484,-1.54297 -0.19532,-0.625 -0.60547,-0.9961 -0.41016,-0.39062 -1.01563,-0.54687 -0.60547,-0.17578 -1.38672,-0.17578 -0.21484,0 -0.48828,0.0195 -0.2539,0 -0.46875,0.0391 l 0,7.03125 0.625,0 z"
         inkscape:connector-curvature="0" />
    </g>
    <g
       transform="translate(-91.87111,-2.7301215)"
       style="font-style:normal;font-weight:normal;font-size:40px;line-height:100%;font-family:sans-serif;letter-spacing:0px;word-spacing:0px;fill:#ff00ff;fill-opacity:1;stroke:none;stroke-width:1px;stroke-linecap:butt;stroke-linejoin:miter;stroke-opacity:1"
       id="g4234" />
    <path
       id="path4239"
       d="m -149.50758,794.75977 a 39,63.103325 0 0 0 -39,63.10156 39,63.103325 0 0 0 39,63.10351 39,63.103325 0 0 0 27.28906,-18.03906 c -3.09723,0.72941 -6.24916,0.85372 -9.38672,0.24805 -9.32033,-1.79917 -16.42985,-9.50454 -20.46093,-20.1211 -4.03107,-10.61655 -5.09146,-24.25636 -2.33399,-38.54101 2.75747,-14.28464 8.81874,-26.54898 16.51172,-34.90234 2.38752,-2.59249 4.94534,-4.81222 7.61719,-6.58985 a 39,63.103325 0 0 0 -19.23633,-8.25976 z m 21.41602,10.41992 c -2.62443,1.67668 -5.17512,3.84088 -7.58985,6.46289 -7.23067,7.85139 -13.11093,19.64479 -15.77344,33.4375 -2.66251,13.7927 -1.59547,26.93159 2.19336,36.91015 3.78883,9.97857 10.19218,16.68773 18.22461,18.23829 3.63177,0.70107 7.34696,0.28831 10.9961,-1.0879 a 39,63.103325 0 0 0 9.5332,-41.27929 39,63.103325 0 0 0 -0.36328,-8.04492 l -1.08594,0 0,7.42187 -3.47656,0 0,-17.96875 c 0.70313,-0.0521 1.4974,-0.0976 2.38281,-0.13672 0.26767,-0.0118 0.50705,-0.009 0.76758,-0.0176 a 39,63.103325 0 0 0 -15.80859,-33.93554 z m -3.22071,33.60156 6.3086,18.45703 -3.73047,0 -2.01172,-6.07422 -6.44531,0.0977 -2.07032,5.97656 -2.20703,0 6.77735,-17.85156 3.3789,-0.60547 z m 8.37891,0.44922 3.47656,0 0,16.66015 c 0,1.86199 -0.4362,3.35287 -1.30859,4.47266 -0.85938,1.13281 -2.14844,1.99219 -3.86719,2.57813 l -0.58594,-1.11329 c 0.46876,-0.28645 0.85287,-0.60546 1.15235,-0.95703 0.29948,-0.35156 0.52734,-0.73567 0.68359,-1.15234 0.16927,-0.40365 0.28646,-0.83985 0.35156,-1.30859 0.0651,-0.45574 0.0977,-0.94401 0.0977,-1.46485 l 0,-17.71484 z m 10.97656,1.89844 0,6.91015 0.625,0 c 0.0998,0 0.19484,-0.0125 0.29297,-0.0176 a 39,63.103325 0 0 0 -0.91797,-6.89257 z m -21.93359,0.5625 -2.67578,7.77343 5.27343,0 -2.59765,-7.77343 z"
       style="opacity:1;fill:#ff0000;fill-opacity:1;fill-rule:nonzero;stroke:none;stroke-width:3;stroke-linecap:round;stroke-linejoin:round;stroke-miterlimit:4;stroke-dasharray:none;stroke-dashoffset:0;stroke-opacity:1"
       inkscape:connector-curvature="0" />
    <path
       id="path4241"
       d="m -113.94117,799.72266 a 32,51.777088 10.925846 0 0 -38.98633,45.07422 32,51.777088 10.925846 0 0 21.60547,56.90429 32,51.777088 10.925846 0 0 41.234374,-44.77344 32,51.777088 10.925846 0 0 -21.605474,-56.90429 32,51.777088 10.925846 0 0 -2.24804,-0.30078 z m -17.3711,39.05859 6.3086,18.45703 -3.73047,0 -2.01172,-6.07422 -6.44531,0.0977 -2.07032,5.97656 -2.20703,0 6.77735,-17.85156 3.3789,-0.60547 z m 20.80078,0.29297 c 2.07032,0 3.63932,0.39714 4.70703,1.1914 1.08073,0.79428 1.6211,2.03777 1.6211,3.73047 0,0.75522 -0.0912,1.41277 -0.27344,1.97266 -0.18229,0.55989 -0.42318,1.04818 -0.72266,1.46484 -0.29947,0.41667 -0.64452,0.76823 -1.03515,1.05469 -0.39063,0.28646 -0.80078,0.52734 -1.23047,0.72266 0.50781,0.92448 0.98959,1.79688 1.44531,2.61718 0.46876,0.82032 0.93099,1.53646 1.38672,2.14844 0.46875,0.61198 0.9375,1.10026 1.40625,1.46485 0.48177,0.35156 0.9961,0.52734 1.54297,0.52734 l 0.11719,0 0,1.15234 c -0.27344,0.0911 -0.59245,0.16276 -0.95703,0.21485 -0.35157,0.0651 -0.7487,0.0976 -1.19141,0.0976 -0.63802,0 -1.19791,-0.0586 -1.67969,-0.17578 -0.46874,-0.11718 -0.93098,-0.37109 -1.38672,-0.76172 -0.4427,-0.39062 -0.90495,-0.96353 -1.38671,-1.71875 -0.48178,-0.7552 -1.04167,-1.77734 -1.67969,-3.0664 l -0.95703,-1.89453 -1.17188,0 0,7.42187 -3.47656,0 0,-17.96875 c 0.70313,-0.0521 1.4974,-0.0976 2.38281,-0.13672 0.88542,-0.0391 1.73178,-0.0586 2.53906,-0.0586 z m -12.42187,0.15625 3.47656,0 0,16.66015 c 0,1.86199 -0.4362,3.35287 -1.30859,4.47266 -0.85938,1.13281 -2.14844,1.99219 -3.86719,2.57813 l -0.58594,-1.11329 c 0.46876,-0.28645 0.85287,-0.60546 1.15235,-0.95703 0.29948,-0.35156 0.52734,-0.73567 0.68359,-1.15234 0.16927,-0.40365 0.28646,-0.83985 0.35156,-1.30859 0.0651,-0.45574 0.0977,-0.94401 0.0977,-1.46485 l 0,-17.71484 z m 11.93359,1.71875 c -0.14322,0 -0.30599,0.007 -0.48828,0.0195 -0.16927,0 -0.32552,0.013 -0.46875,0.0391 l 0,7.03125 0.625,0 c 0.48177,0 0.94401,-0.0586 1.38672,-0.17578 0.45573,-0.13021 0.8138,-0.28646 1.07422,-0.46875 0.13021,-0.0912 0.26042,-0.20833 0.39062,-0.35156 0.13022,-0.14323 0.2474,-0.33203 0.35157,-0.56641 0.10416,-0.23437 0.1888,-0.53385 0.2539,-0.89844 0.0651,-0.36458 0.0977,-0.82031 0.0977,-1.36718 0,-0.61198 -0.0716,-1.1263 -0.21485,-1.54297 -0.13021,-0.41667 -0.33203,-0.7487 -0.60546,-0.99609 -0.27344,-0.26042 -0.61198,-0.44271 -1.01563,-0.54688 -0.40365,-0.11719 -0.86588,-0.17578 -1.38672,-0.17578 z m -22.89062,0.74219 -2.67578,7.77343 5.27343,0 -2.59765,-7.77343 z"
       style="opacity:1;fill:#ff0000;fill-opacity:1;fill-rule:nonzero;stroke:none;stroke-width:3;stroke-linecap:round;stroke-linejoin:round;stroke-miterlimit:4;stroke-dasharray:none;stroke-dashoffset:0;stroke-opacity:1"
       inkscape:connector-curvature="0" />
    <path
       style="fill:#ff0000;fill-rule:evenodd;stroke:none;stroke-width:1px;stroke-linecap:butt;stroke-linejoin:miter;stroke-opacity:1"
       d="m -189.15403,797.80154 c -10.57154,-2.51145 -13.76976,2.70152 -14.5,10.5 15.70587,14.25098 22.52953,32.05485 29,50 l 15,-12.5 c -5.34388,-18.12658 -15.19944,-34.11605 -29.5,-48 z"
       id="path4243"
       inkscape:connector-curvature="0"
       sodipodi:nodetypes="ccccc" />
    <g
       id="g4245"
       style="font-style:normal;font-weight:normal;font-size:40px;line-height:100%;font-family:sans-serif;letter-spacing:0px;word-spacing:0px;fill:#00ff00;fill-opacity:1;stroke:none;stroke-width:1px;stroke-linecap:butt;stroke-linejoin:miter;stroke-opacity:1"
       transform="translate(202.99242,-2.7301215)" />
    <g
       transform="translate(202.99242,-2.7301215)"
       style="font-style:normal;font-weight:normal;font-size:40px;line-height:100%;font-family:sans-serif;letter-spacing:0px;word-spacing:0px;fill:#ff00ff;fill-opacity:1;stroke:none;stroke-width:1px;stroke-linecap:butt;stroke-linejoin:miter;stroke-opacity:1"
       id="g4247" />
    <g
       id="g4259"
       inkscape:export-xdpi="90"
       inkscape:export-ydpi="90"
       style="fill:#ffffff"
       transform="translate(179.25157,5.3033009)">
      <path
         id="path4249"
         d="m -149.50758,794.75977 a 39,63.103325 0 0 0 -39,63.10156 39,63.103325 0 0 0 39,63.10351 39,63.103325 0 0 0 27.28906,-18.03906 c -3.09723,0.72941 -6.24916,0.85372 -9.38672,0.24805 -9.32033,-1.79917 -16.42985,-9.50454 -20.46093,-20.1211 -4.03107,-10.61655 -5.09146,-24.25636 -2.33399,-38.54101 2.75747,-14.28464 8.81874,-26.54898 16.51172,-34.90234 2.38752,-2.59249 4.94534,-4.81222 7.61719,-6.58985 a 39,63.103325 0 0 0 -19.23633,-8.25976 z m 21.41602,10.41992 c -2.62443,1.67668 -5.17512,3.84088 -7.58985,6.46289 -7.23067,7.85139 -13.11093,19.64479 -15.77344,33.4375 -2.66251,13.7927 -1.59547,26.93159 2.19336,36.91015 3.78883,9.97857 10.19218,16.68773 18.22461,18.23829 3.63177,0.70107 7.34696,0.28831 10.9961,-1.0879 a 39,63.103325 0 0 0 9.5332,-41.27929 39,63.103325 0 0 0 -0.36328,-8.04492 l -1.08594,0 0,7.42187 -3.47656,0 0,-17.96875 c 0.70313,-0.0521 1.4974,-0.0976 2.38281,-0.13672 0.26767,-0.0118 0.50705,-0.009 0.76758,-0.0176 a 39,63.103325 0 0 0 -15.80859,-33.93554 z m -3.22071,33.60156 6.3086,18.45703 -3.73047,0 -2.01172,-6.07422 -6.44531,0.0977 -2.07032,5.97656 -2.20703,0 6.77735,-17.85156 3.3789,-0.60547 z m 8.37891,0.44922 3.47656,0 0,16.66015 c 0,1.86199 -0.4362,3.35287 -1.30859,4.47266 -0.85938,1.13281 -2.14844,1.99219 -3.86719,2.57813 l -0.58594,-1.11329 c 0.46876,-0.28645 0.85287,-0.60546 1.15235,-0.95703 0.29948,-0.35156 0.52734,-0.73567 0.68359,-1.15234 0.16927,-0.40365 0.28646,-0.83985 0.35156,-1.30859 0.0651,-0.45574 0.0977,-0.94401 0.0977,-1.46485 l 0,-17.71484 z m 10.97656,1.89844 0,6.91015 0.625,0 c 0.0998,0 0.19484,-0.0125 0.29297,-0.0176 a 39,63.103325 0 0 0 -0.91797,-6.89257 z m -21.93359,0.5625 -2.67578,7.77343 5.27343,0 -2.59765,-7.77343 z"
         style="opacity:1;fill:#ffffff;fill-opacity:1;fill-rule:nonzero;stroke:none;stroke-width:3;stroke-linecap:round;stroke-linejoin:round;stroke-miterlimit:4;stroke-dasharray:none;stroke-dashoffset:0;stroke-opacity:1"
         inkscape:connector-curvature="0" />
      <path
         id="path4251"
         d="m -113.94117,799.72266 a 32,51.777088 10.925846 0 0 -38.98633,45.07422 32,51.777088 10.925846 0 0 21.60547,56.90429 32,51.777088 10.925846 0 0 41.234374,-44.77344 32,51.777088 10.925846 0 0 -21.605474,-56.90429 32,51.777088 10.925846 0 0 -2.24804,-0.30078 z m -17.3711,39.05859 6.3086,18.45703 -3.73047,0 -2.01172,-6.07422 -6.44531,0.0977 -2.07032,5.97656 -2.20703,0 6.77735,-17.85156 3.3789,-0.60547 z m 20.80078,0.29297 c 2.07032,0 3.63932,0.39714 4.70703,1.1914 1.08073,0.79428 1.6211,2.03777 1.6211,3.73047 0,0.75522 -0.0912,1.41277 -0.27344,1.97266 -0.18229,0.55989 -0.42318,1.04818 -0.72266,1.46484 -0.29947,0.41667 -0.64452,0.76823 -1.03515,1.05469 -0.39063,0.28646 -0.80078,0.52734 -1.23047,0.72266 0.50781,0.92448 0.98959,1.79688 1.44531,2.61718 0.46876,0.82032 0.93099,1.53646 1.38672,2.14844 0.46875,0.61198 0.9375,1.10026 1.40625,1.46485 0.48177,0.35156 0.9961,0.52734 1.54297,0.52734 l 0.11719,0 0,1.15234 c -0.27344,0.0911 -0.59245,0.16276 -0.95703,0.21485 -0.35157,0.0651 -0.7487,0.0976 -1.19141,0.0976 -0.63802,0 -1.19791,-0.0586 -1.67969,-0.17578 -0.46874,-0.11718 -0.93098,-0.37109 -1.38672,-0.76172 -0.4427,-0.39062 -0.90495,-0.96353 -1.38671,-1.71875 -0.48178,-0.7552 -1.04167,-1.77734 -1.67969,-3.0664 l -0.95703,-1.89453 -1.17188,0 0,7.42187 -3.47656,0 0,-17.96875 c 0.70313,-0.0521 1.4974,-0.0976 2.38281,-0.13672 0.88542,-0.0391 1.73178,-0.0586 2.53906,-0.0586 z m -12.42187,0.15625 3.47656,0 0,16.66015 c 0,1.86199 -0.4362,3.35287 -1.30859,4.47266 -0.85938,1.13281 -2.14844,1.99219 -3.86719,2.57813 l -0.58594,-1.11329 c 0.46876,-0.28645 0.85287,-0.60546 1.15235,-0.95703 0.29948,-0.35156 0.52734,-0.73567 0.68359,-1.15234 0.16927,-0.40365 0.28646,-0.83985 0.35156,-1.30859 0.0651,-0.45574 0.0977,-0.94401 0.0977,-1.46485 l 0,-17.71484 z m 11.93359,1.71875 c -0.14322,0 -0.30599,0.007 -0.48828,0.0195 -0.16927,0 -0.32552,0.013 -0.46875,0.0391 l 0,7.03125 0.625,0 c 0.48177,0 0.94401,-0.0586 1.38672,-0.17578 0.45573,-0.13021 0.8138,-0.28646 1.07422,-0.46875 0.13021,-0.0912 0.26042,-0.20833 0.39062,-0.35156 0.13022,-0.14323 0.2474,-0.33203 0.35157,-0.56641 0.10416,-0.23437 0.1888,-0.53385 0.2539,-0.89844 0.0651,-0.36458 0.0977,-0.82031 0.0977,-1.36718 0,-0.61198 -0.0716,-1.1263 -0.21485,-1.54297 -0.13021,-0.41667 -0.33203,-0.7487 -0.60546,-0.99609 -0.27344,-0.26042 -0.61198,-0.44271 -1.01563,-0.54688 -0.40365,-0.11719 -0.86588,-0.17578 -1.38672,-0.17578 z m -22.89062,0.74219 -2.67578,7.77343 5.27343,0 -2.59765,-7.77343 z"
         style="opacity:1;fill:#ffffff;fill-opacity:1;fill-rule:nonzero;stroke:none;stroke-width:3;stroke-linecap:round;stroke-linejoin:round;stroke-miterlimit:4;stroke-dasharray:none;stroke-dashoffset:0;stroke-opacity:1"
         inkscape:connector-curvature="0" />
      <path
         style="fill:#ffffff;fill-rule:evenodd;stroke:none;stroke-width:1px;stroke-linecap:butt;stroke-linejoin:miter;stroke-opacity:1"
         d="m -189.15403,797.80154 c -10.57154,-2.51145 -13.76976,2.70152 -14.5,10.5 15.70587,14.25098 22.52953,32.05485 29,50 l 15,-12.5 c -5.34388,-18.12658 -15.19944,-34.11605 -29.5,-48 z"
         id="path4253"
         inkscape:connector-curvature="0"
         sodipodi:nodetypes="ccccc" />
      <g
         id="g4255"
         style="font-style:normal;font-weight:normal;font-size:40px;line-height:100%;font-family:sans-serif;letter-spacing:0px;word-spacing:0px;fill:#ffffff;fill-opacity:1;stroke:none;stroke-width:1px;stroke-linecap:butt;stroke-linejoin:miter;stroke-opacity:1"
         transform="translate(202.99242,-2.7301215)" />
      <g
         transform="translate(202.99242,-2.7301215)"
         style="font-style:normal;font-weight:normal;font-size:40px;line-height:100%;font-family:sans-serif;letter-spacing:0px;word-spacing:0px;fill:#ffffff;fill-opacity:1;stroke:none;stroke-width:1px;stroke-linecap:butt;stroke-linejoin:miter;stroke-opacity:1"
         id="g4257" />
    </g>
    <g
       transform="translate(179.25157,209.3033)"
       style="fill:#2d3e50;fill-opacity:1"
       inkscape:export-ydpi="90"
       inkscape:export-xdpi="90"
       id="g4176">
      <path
         inkscape:connector-curvature="0"
         style="opacity:1;fill:#2d3e50;fill-opacity:1;fill-rule:nonzero;stroke:none;stroke-width:3;stroke-linecap:round;stroke-linejoin:round;stroke-miterlimit:4;stroke-dasharray:none;stroke-dashoffset:0;stroke-opacity:1"
         d="m -149.50758,794.75977 a 39,63.103325 0 0 0 -39,63.10156 39,63.103325 0 0 0 39,63.10351 39,63.103325 0 0 0 27.28906,-18.03906 c -3.09723,0.72941 -6.24916,0.85372 -9.38672,0.24805 -9.32033,-1.79917 -16.42985,-9.50454 -20.46093,-20.1211 -4.03107,-10.61655 -5.09146,-24.25636 -2.33399,-38.54101 2.75747,-14.28464 8.81874,-26.54898 16.51172,-34.90234 2.38752,-2.59249 4.94534,-4.81222 7.61719,-6.58985 a 39,63.103325 0 0 0 -19.23633,-8.25976 z m 21.41602,10.41992 c -2.62443,1.67668 -5.17512,3.84088 -7.58985,6.46289 -7.23067,7.85139 -13.11093,19.64479 -15.77344,33.4375 -2.66251,13.7927 -1.59547,26.93159 2.19336,36.91015 3.78883,9.97857 10.19218,16.68773 18.22461,18.23829 3.63177,0.70107 7.34696,0.28831 10.9961,-1.0879 a 39,63.103325 0 0 0 9.5332,-41.27929 39,63.103325 0 0 0 -0.36328,-8.04492 l -1.08594,0 0,7.42187 -3.47656,0 0,-17.96875 c 0.70313,-0.0521 1.4974,-0.0976 2.38281,-0.13672 0.26767,-0.0118 0.50705,-0.009 0.76758,-0.0176 a 39,63.103325 0 0 0 -15.80859,-33.93554 z m -3.22071,33.60156 6.3086,18.45703 -3.73047,0 -2.01172,-6.07422 -6.44531,0.0977 -2.07032,5.97656 -2.20703,0 6.77735,-17.85156 3.3789,-0.60547 z m 8.37891,0.44922 3.47656,0 0,16.66015 c 0,1.86199 -0.4362,3.35287 -1.30859,4.47266 -0.85938,1.13281 -2.14844,1.99219 -3.86719,2.57813 l -0.58594,-1.11329 c 0.46876,-0.28645 0.85287,-0.60546 1.15235,-0.95703 0.29948,-0.35156 0.52734,-0.73567 0.68359,-1.15234 0.16927,-0.40365 0.28646,-0.83985 0.35156,-1.30859 0.0651,-0.45574 0.0977,-0.94401 0.0977,-1.46485 l 0,-17.71484 z m 10.97656,1.89844 0,6.91015 0.625,0 c 0.0998,0 0.19484,-0.0125 0.29297,-0.0176 a 39,63.103325 0 0 0 -0.91797,-6.89257 z m -21.93359,0.5625 -2.67578,7.77343 5.27343,0 -2.59765,-7.77343 z"
         id="path4178" />
      <path
         inkscape:connector-curvature="0"
         style="opacity:1;fill:#2d3e50;fill-opacity:1;fill-rule:nonzero;stroke:none;stroke-width:3;stroke-linecap:round;stroke-linejoin:round;stroke-miterlimit:4;stroke-dasharray:none;stroke-dashoffset:0;stroke-opacity:1"
         d="m -113.94117,799.72266 a 32,51.777088 10.925846 0 0 -38.98633,45.07422 32,51.777088 10.925846 0 0 21.60547,56.90429 32,51.777088 10.925846 0 0 41.234374,-44.77344 32,51.777088 10.925846 0 0 -21.605474,-56.90429 32,51.777088 10.925846 0 0 -2.24804,-0.30078 z m -17.3711,39.05859 6.3086,18.45703 -3.73047,0 -2.01172,-6.07422 -6.44531,0.0977 -2.07032,5.97656 -2.20703,0 6.77735,-17.85156 3.3789,-0.60547 z m 20.80078,0.29297 c 2.07032,0 3.63932,0.39714 4.70703,1.1914 1.08073,0.79428 1.6211,2.03777 1.6211,3.73047 0,0.75522 -0.0912,1.41277 -0.27344,1.97266 -0.18229,0.55989 -0.42318,1.04818 -0.72266,1.46484 -0.29947,0.41667 -0.64452,0.76823 -1.03515,1.05469 -0.39063,0.28646 -0.80078,0.52734 -1.23047,0.72266 0.50781,0.92448 0.98959,1.79688 1.44531,2.61718 0.46876,0.82032 0.93099,1.53646 1.38672,2.14844 0.46875,0.61198 0.9375,1.10026 1.40625,1.46485 0.48177,0.35156 0.9961,0.52734 1.54297,0.52734 l 0.11719,0 0,1.15234 c -0.27344,0.0911 -0.59245,0.16276 -0.95703,0.21485 -0.35157,0.0651 -0.7487,0.0976 -1.19141,0.0976 -0.63802,0 -1.19791,-0.0586 -1.67969,-0.17578 -0.46874,-0.11718 -0.93098,-0.37109 -1.38672,-0.76172 -0.4427,-0.39062 -0.90495,-0.96353 -1.38671,-1.71875 -0.48178,-0.7552 -1.04167,-1.77734 -1.67969,-3.0664 l -0.95703,-1.89453 -1.17188,0 0,7.42187 -3.47656,0 0,-17.96875 c 0.70313,-0.0521 1.4974,-0.0976 2.38281,-0.13672 0.88542,-0.0391 1.73178,-0.0586 2.53906,-0.0586 z m -12.42187,0.15625 3.47656,0 0,16.66015 c 0,1.86199 -0.4362,3.35287 -1.30859,4.47266 -0.85938,1.13281 -2.14844,1.99219 -3.86719,2.57813 l -0.58594,-1.11329 c 0.46876,-0.28645 0.85287,-0.60546 1.15235,-0.95703 0.29948,-0.35156 0.52734,-0.73567 0.68359,-1.15234 0.16927,-0.40365 0.28646,-0.83985 0.35156,-1.30859 0.0651,-0.45574 0.0977,-0.94401 0.0977,-1.46485 l 0,-17.71484 z m 11.93359,1.71875 c -0.14322,0 -0.30599,0.007 -0.48828,0.0195 -0.16927,0 -0.32552,0.013 -0.46875,0.0391 l 0,7.03125 0.625,0 c 0.48177,0 0.94401,-0.0586 1.38672,-0.17578 0.45573,-0.13021 0.8138,-0.28646 1.07422,-0.46875 0.13021,-0.0912 0.26042,-0.20833 0.39062,-0.35156 0.13022,-0.14323 0.2474,-0.33203 0.35157,-0.56641 0.10416,-0.23437 0.1888,-0.53385 0.2539,-0.89844 0.0651,-0.36458 0.0977,-0.82031 0.0977,-1.36718 0,-0.61198 -0.0716,-1.1263 -0.21485,-1.54297 -0.13021,-0.41667 -0.33203,-0.7487 -0.60546,-0.99609 -0.27344,-0.26042 -0.61198,-0.44271 -1.01563,-0.54688 -0.40365,-0.11719 -0.86588,-0.17578 -1.38672,-0.17578 z m -22.89062,0.74219 -2.67578,7.77343 5.27343,0 -2.59765,-7.77343 z"
         id="path4181" />
      <path
         sodipodi:nodetypes="ccccc"
         inkscape:connector-curvature="0"
         id="path4183"
         d="m -189.15403,797.80154 c -10.57154,-2.51145 -13.76976,2.70152 -14.5,10.5 15.70587,14.25098 22.52953,32.05485 29,50 l 15,-12.5 c -5.34388,-18.12658 -15.19944,-34.11605 -29.5,-48 z"
         style="fill:#2d3e50;fill-opacity:1;fill-rule:evenodd;stroke:none;stroke-width:1px;stroke-linecap:butt;stroke-linejoin:miter;stroke-opacity:1" />
      <g
         transform="translate(202.99242,-2.7301215)"
         style="font-style:normal;font-weight:normal;font-size:40px;line-height:100%;font-family:sans-serif;letter-spacing:0px;word-spacing:0px;fill:#2d3e50;fill-opacity:1;stroke:none;stroke-width:1px;stroke-linecap:butt;stroke-linejoin:miter;stroke-opacity:1"
         id="g4185" />
      <g
         id="g4187"
         style="font-style:normal;font-weight:normal;font-size:40px;line-height:100%;font-family:sans-serif;letter-spacing:0px;word-spacing:0px;fill:#2d3e50;fill-opacity:1;stroke:none;stroke-width:1px;stroke-linecap:butt;stroke-linejoin:miter;stroke-opacity:1"
         transform="translate(202.99242,-2.7301215)" />
    </g>
  </g>
</svg>
